<svg width="58" height="58" viewBox="0 0 58 58" fill="none" xmlns="http://www.w3.org/2000/svg">
<path fill-rule="evenodd" clip-rule="evenodd" d="M22.0976 0.924765C22.6423 1.57699 22.8524 2.54815 22.4502 3.45909C20.9787 6.79286 20.1653 10.4561 20.1653 14.3024C20.1653 29.6956 33.2296 42.25 49.4408 42.25C51.1416 42.25 52.8077 42.1116 54.4278 41.8462C55.4117 41.6851 56.2987 42.1341 56.7876 42.8311C57.2882 43.5447 57.3941 44.5656 56.7548 45.4239C51.0792 53.0434 41.7752 58 31.2755 58C14.0453 58 0 44.6338 0 28.0524C0 15.4464 8.12667 4.69069 19.5869 0.26655C20.5856 -0.118997 21.5405 0.257597 22.0976 0.924765ZM20.4406 2.11876C20.4168 2.11171 20.3771 2.10532 20.3071 2.13235C9.55039 6.28493 2 16.3433 2 28.0524C2 43.4456 15.0643 56 31.2755 56C41.1387 56 49.8499 51.3458 55.1509 44.2292C55.196 44.1685 55.1994 44.13 55.199 44.1087C55.1985 44.0795 55.188 44.0333 55.1503 43.9796C55.072 43.8679 54.9264 43.7912 54.7511 43.8199C53.0245 44.1028 51.2502 44.25 49.4408 44.25C32.2105 44.25 18.1653 30.8838 18.1653 14.3024C18.1653 10.1709 19.0396 6.23319 20.6206 2.65145C20.6928 2.48776 20.6566 2.31947 20.5625 2.20669C20.5175 2.15279 20.472 2.12804 20.4406 2.11876ZM26.4657 10.3632C26.4657 9.81096 26.9134 9.36325 27.4657 9.36325H30.8508C32.6829 9.36325 33.7874 11.3922 32.793 12.931L29.6143 17.8494C29.4799 18.0573 29.6291 18.3315 29.8767 18.3315H33.6027C34.155 18.3315 34.6027 18.7792 34.6027 19.3315C34.6027 19.8838 34.155 20.3315 33.6027 20.3315H29.8767C28.0446 20.3315 26.9401 18.3025 27.9345 16.7638L31.1132 11.8454C31.2476 11.6374 31.0983 11.3632 30.8508 11.3632H27.4657C26.9134 11.3632 26.4657 10.9155 26.4657 10.3632ZM49.863 11.1628C49.863 10.6105 50.3107 10.1628 50.863 10.1628H54.248C56.0801 10.1628 57.1847 12.1917 56.1902 13.7305L53.0115 18.6489C52.8771 18.8568 53.0264 19.131 53.274 19.131H57C57.5522 19.131 58 19.5787 58 20.131C58 20.6833 57.5522 21.131 57 21.131H53.274C51.4419 21.131 50.3373 19.102 51.3318 17.5633L54.5105 12.6449C54.6449 12.4369 54.4956 12.1628 54.248 12.1628H50.863C50.3107 12.1628 49.863 11.715 49.863 11.1628ZM38.3564 17.1416C38.3564 16.5893 38.8041 16.1416 39.3564 16.1416H42.7415C44.5736 16.1416 45.6781 18.1706 44.6836 19.7093L41.5049 24.6277C41.3706 24.8357 41.5198 25.1098 41.7674 25.1098H45.4934C46.0457 25.1098 46.4934 25.5576 46.4934 26.1098C46.4934 26.6621 46.0457 27.1098 45.4934 27.1098H41.7674C39.9353 27.1098 38.8308 25.0809 39.8252 23.5421L43.0039 18.6237C43.1383 18.4158 42.989 18.1416 42.7415 18.1416H39.3564C38.8041 18.1416 38.3564 17.6939 38.3564 17.1416Z" fill="#092187"/>
</svg>
