<svg width="64" height="64" viewBox="0 0 64 64" fill="none" xmlns="http://www.w3.org/2000/svg">
<g opacity="0.3">
<circle cx="25.5714" cy="21.143" r="8.57143" fill="#3A79FF"/>
<circle cx="32.4286" cy="16.5714" r="8.57143" fill="#3A79FF"/>
<circle cx="42.1429" cy="19.4285" r="9.14286" fill="#3A79FF"/>
<circle cx="34.1429" cy="25.1429" r="9.14286" fill="#3A79FF"/>
<circle cx="44.4286" cy="29.143" r="12.5714" fill="#3A79FF"/>
</g>
<circle cx="26.5" cy="21.5" r="5.5" fill="white"/>
<circle cx="32" cy="18" r="6" fill="white"/>
<circle cx="40" cy="22" r="8" fill="white"/>
<circle cx="34" cy="23" r="7" fill="white"/>
<circle cx="43.5" cy="28.5" r="8.5" fill="white"/>
<path d="M51.0173 10.9625C46.5156 6.46088 40.5333 4 34.1708 4H34.1508C16.1439 4 11.6422 18.4051 7.28049 32.3301C6.88034 33.5906 6.50019 34.851 6.10004 36.0915C5.89996 36.7117 6 37.3919 6.40015 37.9321C6.7803 38.4723 7.42055 38.7924 8.0808 38.7924H13.5429V44.9746C13.5429 49.3562 17.1043 52.9375 21.506 52.9375H23.2466V59.1197C23.2466 59.5999 23.6468 60 24.127 60C24.6072 60 25.0073 59.5999 25.0073 59.1197V52.0372C25.0073 51.557 24.6072 51.1568 24.127 51.1568H21.506C18.0846 51.1568 15.3236 48.3758 15.3236 44.9746V37.8921C15.3236 37.4119 14.9234 37.0118 14.4432 37.0118H8.0808C7.98076 37.0118 7.88072 36.9518 7.8207 36.8917C7.76068 36.8117 7.76068 36.7317 7.78068 36.6517C8.18084 35.3912 8.58099 34.1308 8.98115 32.8703C13.3228 18.9253 17.4444 5.76063 34.1308 5.76063H34.1508C40.0331 5.76063 45.5752 8.06145 49.7568 12.2029C53.9384 16.3644 56.2393 21.9064 56.2393 27.8085C56.2393 34.851 52.858 41.5334 47.1558 45.6749C46.9357 45.8349 46.7957 46.115 46.7957 46.3951V59.0997C46.7957 59.5799 47.1958 59.98 47.676 59.98C48.1562 59.98 48.5564 59.5799 48.5564 59.0997V46.8353C54.4786 42.3337 58 35.2512 58 27.8085C58 21.4462 55.499 15.4441 50.9973 10.9425L51.0173 10.9625Z" fill="#092187"/>
<path d="M47.3358 36.3516C50.2769 34.671 52.2377 31.4899 52.1176 27.9086C52.1577 24.8875 50.7971 21.9865 48.4562 20.1058C47.816 16.2844 44.5147 13.4434 40.5932 13.4434H40.5332C39.5928 13.4434 38.6725 13.6235 37.7921 13.9436C36.9118 12.7232 35.6513 11.8229 34.1907 11.3827C32.4501 10.8825 30.6294 11.0826 29.0488 11.9429C27.9283 12.5631 26.988 13.4834 26.3877 14.6038C24.7871 14.6839 23.2866 15.3041 22.1061 16.4045C20.7656 17.6249 20.0053 19.3055 19.9253 21.1262C19.7852 24.8675 22.6863 28.0286 26.4878 28.1687C26.968 28.1687 27.4482 28.1087 27.9283 27.9886C29.3489 30.2694 31.8899 31.6899 34.5709 31.6899H34.6109C35.9314 35.1512 39.2127 37.512 43.0141 37.6121C44.3346 37.572 45.5951 37.2319 46.7156 36.7117C46.7356 36.7117 46.7556 36.7117 46.7756 36.7117C47.0157 36.6717 47.1957 36.5317 47.3358 36.3516ZM43.0141 35.8514C39.7929 35.7714 36.9918 33.6306 36.0715 30.5295C35.9514 30.1494 35.6113 29.8893 35.2311 29.8893C35.2111 29.8893 35.1711 29.8893 35.1511 29.8893C32.7902 30.1294 30.5093 28.909 29.3289 26.8482L29.8891 25.2076C30.3493 23.8071 31.3296 22.6267 32.6502 21.8664L34.0507 20.9461C34.4508 20.686 34.5709 20.1258 34.2908 19.7257C34.0307 19.3255 33.4705 19.2055 33.0703 19.4856L31.7298 20.3659C30.0692 21.3062 28.8287 22.8268 28.2084 24.6474L27.6682 26.228C27.2681 26.328 26.8679 26.4081 26.5078 26.4081C23.7467 26.308 21.5859 23.9672 21.6859 21.1862C21.746 19.8457 22.3062 18.6053 23.2866 17.705C24.2669 16.8046 25.5474 16.3045 26.8879 16.3845C27.2281 16.3845 27.5882 16.1844 27.7283 15.8643C28.1684 14.8639 28.9287 14.0236 29.8891 13.5035C31.0495 12.8632 32.4101 12.7232 33.6906 13.0833C34.971 13.4634 36.0315 14.3037 36.6717 15.4642C36.8918 15.8843 37.412 16.0444 37.8321 15.8243C38.6725 15.4041 39.5928 15.1841 40.5332 15.1841H40.5732C42.4339 15.1841 44.1146 16.0244 45.255 17.3448C41.0934 18.7453 40.1931 21.0862 39.7529 22.2466L40.5732 22.5467L41.4535 22.7468C41.7937 21.8464 42.4939 20.0258 46.2154 18.9054C46.4555 19.4456 46.6355 20.0258 46.7156 20.666C46.7356 20.9061 46.8756 21.1262 47.0557 21.2662C49.1365 22.8068 50.337 25.2677 50.2969 27.9086C50.397 30.5695 49.0965 32.9704 47.0757 34.4109C46.4355 32.2702 45.255 30.3095 43.6144 28.7889C43.2542 28.4488 42.694 28.4888 42.3539 28.8289C42.0138 29.1891 42.0538 29.7493 42.3939 30.0894C43.8945 31.4699 44.9549 33.2905 45.4751 35.2712C44.6748 35.5913 43.8344 35.8114 42.9341 35.8514H43.0141Z" fill="#092187"/>
</svg>
