<svg width="64" height="64" viewBox="0 0 64 64" fill="none" xmlns="http://www.w3.org/2000/svg">
<g opacity="0.3">
<circle cx="33.5" cy="8.5" r="8.5" fill="#3A79FF"/>
<path d="M31.6326 53.3188L29.1516 61.3823C28.7643 62.641 27.6013 63.5 26.2843 63.5H25.7981C23.712 63.5 22.2627 61.4237 22.982 59.4655L30.316 39.5009C30.4377 39.1696 30.5 38.8194 30.5 38.4664V27.5C30.5 25.8431 29.1597 24.5 27.5029 24.5H9.49998C8.67753 24.5 8.74759 22.621 9.03406 20.7948C9.24739 19.4348 10.4657 18.5 11.8423 18.5H55C56.6568 18.5 58 19.8431 58 21.5C58 23.1569 56.6568 24.5 55 24.5H43.5C41.8431 24.5 40.5 25.8431 40.5 27.5V36.5045C40.5 36.8326 40.5538 37.1585 40.6593 37.4692L48.1535 59.5353C48.8143 61.4809 47.3676 63.5 45.3128 63.5H42.7157C41.3987 63.5 40.2357 62.641 39.8484 61.3823L37.3673 53.3188C36.4985 50.4952 32.5015 50.4952 31.6326 53.3188Z" fill="#3A79FF"/>
</g>
<circle cx="32" cy="7" r="5" fill="white"/>
<path d="M32 16L10.4951 17.3441C9.09262 17.4317 8 18.5948 8 20C8 20.8284 8.67157 21.5 9.5 21.5H24.4393C25.1185 21.5 25.7698 21.7698 26.25 22.25C26.7302 22.7302 27 23.3815 27 24.0607V37.0627C27 37.3527 26.9579 37.6412 26.8752 37.9191L20.4827 59.3795C20.1926 60.3534 20.5499 61.4124 21.3628 62.0221C21.7733 62.33 22.2774 62.5 22.7906 62.5C23.8114 62.5 24.7177 61.8468 25.0406 60.8783L29.6796 46.9611C29.8848 46.3457 30.3347 45.8327 30.9149 45.5426C31.5915 45.2043 32.3982 45.1991 33.0748 45.5374C33.6654 45.8327 34.1085 46.358 34.3 46.99L38.4693 60.7487C38.7845 61.7887 39.7432 62.5 40.83 62.5C41.8386 62.5 42.7456 61.8859 43.1202 60.9494L43.1561 60.8598C43.3786 60.3036 43.4029 59.6878 43.2249 59.1157L36.6354 37.9353C36.5457 37.6468 36.5 37.3463 36.5 37.0441V24.6986C36.5 23.6448 37.0529 22.6683 37.9565 22.1261L38.2875 21.9275C38.7537 21.6478 39.2872 21.5 39.831 21.5H54.4388C55.5772 21.5 56.5 20.5772 56.5 19.4388C56.5 18.3494 55.6522 17.4481 54.5648 17.3815L32 16Z" fill="white"/>
<path fill-rule="evenodd" clip-rule="evenodd" d="M27.7941 37.1395C27.4977 38.0813 25.7737 43.5695 24.1244 49.0075C23.2993 51.7278 22.4957 54.4265 21.8994 56.5345C21.6007 57.5902 21.3577 58.4847 21.1907 59.1545C21.1068 59.4907 21.046 59.7548 21.0073 59.9469C20.9852 60.0565 20.9757 60.1171 20.9721 60.1405C20.979 60.6981 21.0862 61.1378 21.2483 61.4454C21.3981 61.7296 21.61 61.9391 21.9638 62.0734C22.399 62.2385 22.9072 62.2379 23.3174 62.0962C23.7234 61.9561 23.8802 61.7434 23.9297 61.5987C24.3228 60.4495 27.5709 50.8709 29.2874 45.8081C30.1796 43.1764 33.9119 43.2276 34.7367 45.8769C36.3217 50.9687 39.2874 60.4798 39.6702 61.5987C39.7197 61.7434 39.8765 61.9561 40.2825 62.0962C40.6927 62.2379 41.2009 62.2385 41.6361 62.0734C41.9899 61.9391 42.2018 61.7296 42.3516 61.4454C42.5137 61.1378 42.6209 60.6981 42.6278 60.1405C42.6242 60.1171 42.6147 60.0565 42.5926 59.9469C42.5539 59.7548 42.4931 59.4907 42.4092 59.1545C42.2422 58.4847 41.9992 57.5902 41.7006 56.5345C41.1042 54.4265 40.3006 51.7278 39.4755 49.0075C37.8262 43.5695 36.1022 38.0813 35.8058 37.1395C35.7102 36.8354 35.6782 36.5565 35.6782 36.2933V23.3497C35.6782 21.7665 36.9617 20.483 38.5449 20.483H55.1967C55.237 20.483 55.2675 20.481 55.2896 20.4785C55.3214 20.4217 55.3685 20.3153 55.4195 20.1324C55.4772 19.9252 55.5243 19.6792 55.5737 19.3722C55.6476 18.9125 55.561 18.3867 55.3791 18.035C55.294 17.8703 55.2184 17.802 55.1928 17.7834C55.1841 17.777 55.1967 17.7832 55.1967 17.7832C53.5841 17.7832 33.4927 16.806 32.0434 16.7354C30.5752 16.8053 10.0152 17.7833 8.40318 17.7833C8.40318 17.7833 8.41585 17.777 8.40706 17.7834C8.3815 17.802 8.30591 17.8703 8.22077 18.035C8.03891 18.3867 7.95227 18.9125 8.02623 19.3722C8.07563 19.6792 8.12272 19.9252 8.18044 20.1324C8.23141 20.3153 8.27849 20.4217 8.31027 20.4785C8.33245 20.481 8.36294 20.483 8.40318 20.483H25.055C26.6382 20.483 27.9217 21.7665 27.9217 23.3497V36.2933C27.9217 36.5565 27.8897 36.8354 27.7941 37.1395ZM31.8 11C34.3405 11 36.4 8.94051 36.4 6.4C36.4 3.85949 34.3405 1.8 31.8 1.8C29.2594 1.8 27.2 3.85949 27.2 6.4C27.2 8.94051 29.2594 11 31.8 11ZM31.8 12.8C35.3346 12.8 38.2 9.93462 38.2 6.4C38.2 2.86538 35.3346 0 31.8 0C28.2653 0 25.4 2.86538 25.4 6.4C25.4 9.93462 28.2653 12.8 31.8 12.8ZM32.0025 14.9353C30.9393 14.986 9.97764 15.9833 8.40318 15.9833C6.78772 15.9833 5.98635 18.0251 6.24909 19.6581C6.45776 20.9551 6.78741 22.283 8.40318 22.283H25.055C25.6441 22.283 26.1217 22.7606 26.1217 23.3497V36.2933C26.1217 36.4021 26.1097 36.4955 26.077 36.5993C25.4834 38.4859 19.172 58.5806 19.1717 60.0814C19.1713 61.6564 19.7454 63.1567 21.3252 63.7563C22.9994 64.3917 25.094 63.7563 25.6328 62.1813C26.027 61.0291 29.2764 51.4464 30.9921 46.3861C31.3239 45.4074 32.7109 45.4252 33.018 46.4119C34.5953 51.479 37.5736 61.031 37.9671 62.1813C38.5059 63.7563 40.6005 64.3917 42.2747 63.7563C43.8545 63.1567 44.4286 61.6564 44.4282 60.0814C44.4279 58.5806 38.1165 38.4859 37.5229 36.5993C37.4902 36.4955 37.4782 36.4021 37.4782 36.2933V23.3497C37.4782 22.7606 37.9558 22.283 38.5449 22.283H55.1967C56.8125 22.283 57.1421 20.9551 57.3508 19.6581C57.6136 18.0251 56.8122 15.9833 55.1967 15.9833C53.6232 15.9833 33.1491 14.9871 32.0872 14.9354C32.053 14.9338 32.0367 14.9337 32.0025 14.9353Z" fill="#092187"/>
</svg>
